<svg xmlns="http://www.w3.org/2000/svg" width="1447" height="725" viewBox="0 0 1447 725">
<g>
<path d="M 577.23 591.38 C569.12,595.57 565.65,592.73 563.15,579.88 C561.41,570.94 561.34,566.97 562.07,523.38 C563.62,430.74 566.11,395.00 571.00,395.00 C573.28,395.00 575.84,397.99 577.09,402.11 C578.65,407.24 580.96,422.87 580.98,428.39 C581.01,435.34 583.21,451.00 584.16,451.00 C585.48,451.00 588.59,444.03 591.40,434.77 C593.72,427.15 594.52,425.72 597.72,423.55 C602.79,420.10 604.91,420.89 615.00,429.97 C633.83,446.93 644.90,451.25 652.97,444.81 C654.55,443.54 659.16,440.38 663.20,437.80 C672.74,431.69 678.94,425.66 684.34,417.28 C690.50,407.69 693.16,405.20 704.76,398.08 L 715.02 391.79 L 711.85 388.15 C707.76,383.44 704.56,381.31 699.00,379.56 C696.53,378.79 689.39,375.87 683.14,373.08 C676.90,370.28 667.90,366.82 663.14,365.39 C658.39,363.95 646.62,360.15 637.00,356.95 C627.38,353.75 612.30,349.05 603.50,346.52 C562.67,334.75 484.64,307.99 446.00,292.50 C442.42,291.07 432.98,287.40 425.00,284.35 C417.02,281.30 405.77,276.99 400.00,274.78 C379.73,267.03 358.53,257.65 352.59,253.81 C345.80,249.43 343.70,248.72 338.89,249.18 C336.31,249.42 335.43,250.01 335.19,251.65 C334.35,257.56 350.53,296.34 366.11,325.73 C370.12,333.31 375.45,343.43 377.95,348.24 C382.08,356.19 384.91,359.68 383.63,355.25 C382.26,350.56 381.83,340.76 382.49,329.42 L 383.21 316.89 L 388.50 317.50 L 389.16 337.50 C390.16,368.02 392.34,375.72 409.97,410.94 C414.94,420.86 419.00,429.90 419.00,431.02 C419.00,433.59 416.28,434.72 414.52,432.89 C412.09,430.35 371.41,348.74 365.23,334.00 C361.88,326.02 356.12,313.20 352.42,305.50 L 351.48 303.55 C332.85,264.79 329.97,258.80 330.20,252.93 C330.24,251.76 330.41,250.59 330.60,249.17 C331.05,245.85 331.21,244.02 332.21,243.19 C333.40,242.20 335.78,242.64 341.26,243.65 C341.64,243.72 342.03,243.79 342.44,243.87 C346.53,244.62 350.41,246.30 354.94,249.28 C358.55,251.66 370.27,257.37 381.00,261.96 C391.73,266.55 408.38,273.80 418.00,278.07 C434.17,285.25 452.33,292.66 464.50,297.05 C467.25,298.04 471.98,299.81 475.00,300.97 C506.35,313.05 570.95,334.80 604.50,344.58 C613.30,347.14 628.60,351.86 638.50,355.07 C648.40,358.28 660.33,362.01 665.00,363.37 C669.67,364.72 678.23,367.82 684.02,370.26 C689.81,372.69 697.66,375.72 701.47,376.99 C706.80,378.76 709.50,380.41 713.24,384.15 C715.91,386.82 718.69,389.00 719.42,389.00 C721.48,389.00 788.67,344.90 970.50,224.19 C1014.93,194.70 1041.39,177.33 1064.50,162.50 C1073.00,157.04 1096.19,141.99 1102.41,137.89 C1105.65,135.75 1109.14,134.00 1110.16,134.00 C1113.46,134.00 1112.10,136.91 1107.75,139.13 C1102.07,142.02 1081.55,154.34 1065.44,164.52 C1036.33,182.92 855.56,302.84 813.47,331.67 C803.04,338.82 791.58,346.62 788.00,349.01 C784.42,351.40 774.53,358.37 766.00,364.50 C757.47,370.63 744.08,380.06 736.23,385.46 C723.59,394.14 722.04,395.51 722.73,397.38 C723.15,398.55 723.50,402.24 723.50,405.58 C723.50,411.07 722.84,413.01 716.75,425.41 C709.13,440.90 706.21,445.48 698.64,453.73 C695.73,456.90 688.24,466.25 682.00,474.50 C675.76,482.75 665.66,495.35 659.54,502.50 C653.42,509.65 643.52,521.35 637.52,528.50 C631.53,535.65 621.20,547.48 614.56,554.78 C607.93,562.09 599.80,571.18 596.50,574.98 C590.36,582.07 582.80,588.50 577.23,591.38 ZM 571.34 587.23 C571.98,587.64 573.11,587.98 573.87,587.98 C581.97,588.08 635.51,529.85 674.54,478.50 C679.97,471.35 686.37,463.02 688.75,460.00 C701.31,444.07 705.22,438.12 711.91,424.75 C719.10,410.38 721.23,403.18 719.19,400.18 C717.77,398.08 698.59,409.39 695.16,414.34 C693.70,416.45 690.92,420.14 689.00,422.53 C687.08,424.93 684.04,428.92 682.25,431.40 C677.14,438.50 661.39,450.30 651.54,454.42 C649.39,455.32 646.59,455.66 644.27,455.30 C640.18,454.66 629.60,449.77 624.00,445.91 C618.95,442.44 606.24,432.20 605.51,431.01 C605.16,430.45 603.82,430.00 602.52,430.00 C600.06,430.00 600.01,430.10 597.01,441.00 C596.33,443.48 595.26,446.62 594.64,448.00 C593.16,451.25 584.28,460.00 582.46,460.00 C580.16,460.00 578.28,455.91 577.63,449.50 C576.11,434.39 572.02,405.65 571.46,406.21 C571.27,406.39 570.11,413.96 568.87,423.02 C566.76,438.46 566.61,443.46 566.39,502.00 C566.22,550.62 566.46,566.05 567.50,571.50 C568.23,575.35 569.13,580.30 569.51,582.50 C569.88,584.70 570.70,586.83 571.34,587.23 Z" fill="rgb(30,57,102)" stroke="rgb(30,57,102)" stroke-width="8"/>
<path d="M 0.00 362.50 L 0.00 0.00 L 723.50 0.00 L 1447.00 0.00 L 1447.00 362.50 L 1447.00 725.00 L 723.50 725.00 L 0.00 725.00 L 0.00 362.50 ZM 577.23 591.38 C582.80,588.50 590.36,582.07 596.50,574.98 C599.80,571.18 607.93,562.09 614.56,554.78 C621.20,547.48 631.53,535.65 637.52,528.50 C643.52,521.35 653.42,509.65 659.54,502.50 C665.66,495.35 675.76,482.75 682.00,474.50 C688.24,466.25 695.73,456.90 698.64,453.73 C706.21,445.48 709.13,440.90 716.75,425.41 C722.84,413.01 723.50,411.07 723.50,405.58 C723.50,402.24 723.15,398.55 722.73,397.38 C722.04,395.51 723.59,394.14 736.23,385.46 C744.08,380.06 757.47,370.63 766.00,364.50 C774.53,358.37 784.42,351.40 788.00,349.01 C791.58,346.62 803.04,338.82 813.47,331.67 C855.56,302.84 1036.33,182.92 1065.44,164.52 C1081.55,154.34 1102.07,142.02 1107.75,139.13 C1112.10,136.91 1113.46,134.00 1110.16,134.00 C1109.14,134.00 1105.65,135.75 1102.41,137.89 C1096.19,141.99 1073.00,157.04 1064.50,162.50 C1041.39,177.33 1014.93,194.70 970.50,224.19 C788.67,344.90 721.48,389.00 719.42,389.00 C718.69,389.00 715.91,386.82 713.24,384.15 C709.50,380.41 706.80,378.76 701.47,376.99 C697.66,375.72 689.81,372.69 684.02,370.26 C678.23,367.82 669.67,364.72 665.00,363.37 C660.33,362.01 648.40,358.28 638.50,355.07 C628.60,351.86 613.30,347.14 604.50,344.58 C570.95,334.80 506.35,313.05 475.00,300.97 C471.98,299.81 467.25,298.04 464.50,297.05 C452.33,292.66 434.17,285.25 418.00,278.07 C408.38,273.80 391.73,266.55 381.00,261.96 C370.27,257.37 358.55,251.66 354.94,249.28 C350.41,246.30 346.53,244.62 342.44,243.87 C331.16,241.80 331.62,241.59 330.60,249.17 C329.44,257.83 329.13,257.04 352.42,305.50 C356.12,313.20 361.88,326.02 365.23,334.00 C371.41,348.74 412.09,430.35 414.52,432.89 C416.28,434.72 419.00,433.59 419.00,431.02 C419.00,429.90 414.94,420.86 409.97,410.94 C392.34,375.72 390.16,368.02 389.16,337.50 L 388.50 317.50 L 385.85 317.19 L 383.21 316.89 L 382.49 329.42 C381.83,340.76 382.26,350.56 383.63,355.25 C384.91,359.68 382.08,356.19 377.95,348.24 C375.45,343.43 370.12,333.31 366.11,325.73 C350.53,296.34 334.35,257.56 335.19,251.65 C335.43,250.01 336.31,249.42 338.89,249.18 C343.70,248.72 345.80,249.43 352.59,253.81 C358.53,257.65 379.73,267.03 400.00,274.78 C405.77,276.99 417.02,281.30 425.00,284.35 C432.98,287.40 442.42,291.07 446.00,292.50 C484.64,307.99 562.67,334.75 603.50,346.52 C612.30,349.05 627.38,353.75 637.00,356.95 C646.62,360.15 658.39,363.95 663.14,365.39 C667.90,366.82 676.90,370.28 683.14,373.08 C689.39,375.87 696.53,378.79 699.00,379.56 C704.56,381.31 707.76,383.44 711.85,388.15 L 715.02 391.79 L 704.76 398.08 C693.16,405.20 690.50,407.69 684.34,417.28 C678.94,425.66 672.74,431.69 663.20,437.80 C659.16,440.38 654.55,443.54 652.97,444.81 C644.90,451.25 633.83,446.93 615.00,429.97 C604.91,420.89 602.79,420.10 597.72,423.55 C594.52,425.72 593.72,427.15 591.40,434.77 C588.59,444.03 585.48,451.00 584.16,451.00 C583.21,451.00 581.01,435.34 580.98,428.39 C580.96,422.87 578.65,407.24 577.09,402.11 C575.84,397.99 573.28,395.00 571.00,395.00 C566.11,395.00 563.62,430.74 562.07,523.38 C561.34,566.97 561.41,570.94 563.15,579.88 C565.65,592.73 569.12,595.57 577.23,591.38 ZM 571.34 587.23 C570.70,586.83 569.88,584.70 569.51,582.50 C569.13,580.30 568.23,575.35 567.50,571.50 C566.46,566.05 566.22,550.62 566.39,502.00 C566.61,443.46 566.76,438.46 568.87,423.02 C570.11,413.96 571.27,406.39 571.46,406.21 C572.02,405.65 576.11,434.39 577.63,449.50 C578.28,455.91 580.16,460.00 582.46,460.00 C584.28,460.00 593.16,451.25 594.64,448.00 C595.26,446.62 596.33,443.48 597.01,441.00 C600.01,430.10 600.06,430.00 602.52,430.00 C603.82,430.00 605.16,430.45 605.51,431.01 C606.24,432.20 618.95,442.44 624.00,445.91 C629.60,449.77 640.18,454.66 644.27,455.30 C646.59,455.66 649.39,455.32 651.54,454.42 C661.39,450.30 677.14,438.50 682.25,431.40 C684.04,428.92 687.08,424.93 689.00,422.53 C690.92,420.14 693.70,416.45 695.16,414.34 C698.59,409.39 717.77,398.08 719.19,400.18 C721.23,403.18 719.10,410.38 711.91,424.75 C705.22,438.12 701.31,444.07 688.75,460.00 C686.37,463.02 679.97,471.35 674.54,478.50 C635.51,529.85 581.97,588.08 573.87,587.98 C573.11,587.98 571.98,587.64 571.34,587.23 Z" fill="rgb(254,254,254)"/>
</g>
</svg>